<svg id="Слой_1" data-name="Слой 1" xmlns="http://www.w3.org/2000/svg" viewBox="0 0 2000 1234.54"><defs><style>.cls-1{fill:#fff;}.cls-2{fill:#dac99a;}</style></defs><path class="cls-1" d="M251,967.86q0,20.32-8,26.48-5.25,3.7-23.72,3.7-19.4,0-24-19.56-4.6-19.86-26.48-19.86-12.31,0-18.32,6a19.48,19.48,0,0,0-6,14.29v106.38q0,5.24.16,10.15c.1,3.29.41,7,.92,11.07s1.28,9,2.31,14.6,2.47,12.46,4.31,20.45q0,6.45-4.62,9.68t-19.4,3.23h-6.77q-4,0-8.16-.15t-7.7-.46a24.52,24.52,0,0,1-5.39-.93q-7.39-2.15-7.39-8.61l8.62-70.71q.61-11.38.93-22.9t.61-23.83q.93-24.29.93-35.05,0-17.54-4.47-25.37t-15.55-7.84q-26.18,0-31.72,19.86Q47.12,998,23.1,998,8.61,998,3.7,986,0,977.41,0,958.31a41,41,0,0,1,3.39-15.39Q8,932.14,16,932.14H235a16.35,16.35,0,0,1,7.39,1.54,11.08,11.08,0,0,1,4.93,5.54,39.36,39.36,0,0,1,2.77,10.93A139.81,139.81,0,0,1,251,967.86Z"/><path class="cls-1" d="M495.54,1092.27q0,20-29.56,39.72-33.25,22.17-77.91,22.17-45,0-76.68-21.55a121.1,121.1,0,0,1-39.11-43.11q-7.08-13.24-9.39-23.56a100.57,100.57,0,0,1-2.31-22q0-23.72,6.47-43.11,9.85-29.25,32.95-45.58Q329.87,934,379.75,934a176.76,176.76,0,0,1,56.05,9.54q39.72,12.93,46.5,35.42a32.52,32.52,0,0,1,.61,3.69q0,6.78-9.85,9.24-4.62,1.23-13.86,1.23-15.7,0-28.94-11.39-29.26-24.94-42.19-25-23.71,0-45.58,15-25.86,17.48-25.86,42,0,9.49,7.54,13.18t20.48,3.68q21.24-2.78,43.11-4.77t38.8-2q8,0,11.24,3.58t3.23,11.68c0,5.4-1.54,9-4.62,10.89s-7.08,2.8-12,2.8a38.16,38.16,0,0,1-6-.46c-1.95-.31-3.54-.56-4.77-.77q-8.62,0-18.64-.51t-21.4-1.18q-11.38-.69-21.09-1.19t-17.71-.51a13.6,13.6,0,0,0-5.54,1.24,26.93,26.93,0,0,0-5.23,3.11,16,16,0,0,0-4,4.34,8.92,8.92,0,0,0-1.54,4.66q0,32.89,30.49,51.51,24.32,14.6,51.12,14.59,19.4,0,35.72-21.4,16-21.4,41.88-21.4a21.23,21.23,0,0,1,3.39-.31h3.08a18.75,18.75,0,0,1,8.31,1.54Q495.54,1087.66,495.54,1092.27Z"/><path class="cls-1" d="M690.31,1005.12q0,29.56-32,48.65-25.56,15.09-51.73,15.09l-19.4-4.92q26.18-15.09,36-21.25,16.94-10.47,16.93-44,0-15.71-13.85-25.56-16.95-11.7-36-11.7-14.79,0-21.25,8Q564,975.25,564.05,986a48.66,48.66,0,0,0,.62,8q.62,3.71,1.23,6.16v225.42q0,8.92-10.47,8.93c-.82,0-2.11-.06-3.85-.16s-3.65-.26-5.7-.46-4.15-.36-6.31-.46-4.05-.16-5.7-.16H523.71c-3.28,0-6.36.11-9.24.31a31.59,31.59,0,0,1-6.16-.31q.93-7.08,1.85-14t1.85-14q4.92-38.19,7.39-68.36,2.16-24,3.08-45t.92-38.8v-69a30.38,30.38,0,0,0-1.23-7.39q-3.07-11.38-3.08-16.32,0-11.7,8.63-17.55,11.7-8,38.18-8,68.67,0,97.92,18.78Q690.31,970.33,690.31,1005.12Z"/><path class="cls-1" d="M939.09,1150.93q-9.86,3.85-32.33,3.85-8.62,0-10.78-2.93c-1.44-1.94-2.16-5.18-2.16-9.7q1.23-16.92,2.78-44.34.61-13.86.92-25.4t.31-21.1a13.72,13.72,0,0,0,.31-2.46V1047a38.2,38.2,0,0,0-1.85-12.63q-2.77-7.38-9.24-7.39-11.09,0-25.25,29t-33.87,29q-16.33,0-34.8-29t-25.87-29q-5.24,0-6.77,6.16a40.39,40.39,0,0,0-.93,15.09q0,28.33,1.7,50.2t3.85,42.49q0,13.86-35.11,13.86-14.16,0-19.4-2.46c-3.49-1.65-5.24-5.44-5.24-11.4q1.68-18.17,2.69-49.27t1-78.52q0-11.7-.55-20.33T707.21,978l-3.69-21.55q0-10.17,13.85-15.4,10.47-3.71,27.41-3.7,10.17,0,24.94,28.64,7.1,13.56,13.86,26.79t13.86,26.49q17.85,28.93,34.8,28.94,9.24,0,25.86-28.64l31.11-53.89q19.69-28.94,36-28.94,12.94,0,17.56,4.92t4.62,14.48v5.23a19.6,19.6,0,0,1-.31,3.7c-.42,5.34-.77,9.39-1.08,12.16s-.46,4.36-.46,4.77v87.77q0,9.54.31,19.4t.92,19.71l2.16,33.25Q949,1147.09,939.09,1150.93Z"/><path class="cls-1" d="M1247.67,1130.45q0,12.32-18.16,18.48-16.34,5.23-42.19,5.23t-44.65-31.41q-8.94-14.77-25.56-58.81-12-31.71-20.33-31.72-12.93,0-30.79,31.41-31.11,54.51-34.49,58.82-23.09,31.71-47.73,31.71c-4.72,0-8.27-1.28-10.62-3.85a11.87,11.87,0,0,1-3.55-8.16q0-8,28-40.64a69.17,69.17,0,0,1,10.16-14.17q7.08-8,16-16.94t18.63-18.32q9.71-9.39,17.56-18.47a140.55,140.55,0,0,0,12.93-17.25q5.07-8.16,5.08-14.63,0-17.55-5.39-23.86t-15.86-6.32a117.41,117.41,0,0,0-16,1.85,125.16,125.16,0,0,1-18.17,1.85q-4.32,0-11.7-8.31-8.62-9.54-8.62-19.4,0-4.32,19.71-8.32a239.86,239.86,0,0,1,51.73-5.23q19.39,0,38.49,25.55,18.78,25.26,41.88,82.53.62,1.54,4.93,9.55t12.32,22.79q14.78,27.4,16.62,30.17,10.47,12,35.11,12T1247.67,1130.45Z"/><path class="cls-1" d="M1262.55,950a14.6,14.6,0,0,1,5.08-10.93,16.44,16.44,0,0,1,11.55-4.78q22.17,0,31.87,4.31t9.7,11.4q-1.55,17.55-2.77,34.18t-2.78,33q-2.76,32.34-2.77,41.88a33.33,33.33,0,0,0,1.85,11.7q1.85,4.93,5.86,4.93a10.34,10.34,0,0,0,5.85-2.16q14.15-8.93,34.79-44.65,8.92-15.7,17.71-30.79t17.7-30.8q20.32-30.78,34.8-30.79,19.1,0,30.49,5.85,8.93,4.62,8.93,8.62,0,11.72-3.7,81.3,0,11.71.46,25.41t1.08,29.71q.62,16,1.39,30.18t1.69,26.79q0,6.17-4.31,8.16t-12.93,2q-18.18,0-28.18-5.85t-10.62-14.47l4-101.93a32.93,32.93,0,0,0,.31-5.85,93,93,0,0,0-.93-13.24q-2.14-14.16-8.62-14.17-10.15,0-30.79,40.65-9.55,18.48-18.79,37.11t-18.78,37.41q-20.94,40.35-29.26,40.34-2.16,0-7.69.31c-3.7.2-6.58.31-8.62.31q-14.17,0-20.33-4-9.24-5.53-9.24-20.32-.32-12.63-.46-23.86t-.46-21.72q-.32-10.46-.77-28.33t-1.08-43.11q-.63-25.25-.92-41.11T1262.55,950Z"/><path class="cls-1" d="M1695.73,1150.78q-8,4.62-21.25,4.62l-10.17-.62q-4.62,0-8.31-4.31-5.24-6.17-5.23-16.32a120.61,120.61,0,0,0,4.77-22.17q1.7-12.95,1.69-36,0-16.32-12-22.48-8.61-4.32-27.09-4.31h-31.42q-14.46,0-21.25,4.61-9.54,5.87-9.54,22.18c0,1,.26,4,.77,8.93s1.28,11.9,2.31,20.94q2.77,26.49,2.77,28.33,0,12-12.31,16.93-8.94,3.7-22.18,3.7a23.15,23.15,0,0,1-16.16-6,19,19,0,0,1-6.62-14.62q0-1.85.77-14t2.31-35q1.53-22.79,2.3-34.64t.77-13.09q0-13.23-.15-25.56a196.21,196.21,0,0,0-1.7-23.71l-4.3-35.72q0-9.54,15.08-14.47a62.74,62.74,0,0,1,21.25-4q10.77,0,15.4,6.77,3.69,5.55,3.69,16.63c0,2.26-.15,5.23-.46,8.93s-.87,8.11-1.69,13.24-1.38,9.55-1.69,13.24-.47,6.68-.47,8.93q0,11.09,4.16,16.79t15.24,5.69q8.63,0,19.71.47t24,.76q20.33,0,28.33-5.23,10.17-6.47,10.16-25.56-1.23-6.15-1.85-10.78c-.41-3.08-.82-5.74-1.23-8q-1.55-10.47-2.46-16.33c-.61-3.89-.92-6.26-.92-7.08q0-10.46,8.31-15.09,6.17-3.37,17.24-3.38,16.64,0,23.71,2t7.09,6.62q-.93,8.94-1.85,19.55t-1.54,22.64q-1.55,20.33-1.84,33.25l5.23,109.94Q1707.12,1144.31,1695.73,1150.78Z"/><path class="cls-1" d="M1917.16,1089.19q0,34.8-26.48,51.42-29.25,18.8-97.92,18.79-26.49,0-38.19-8-8.62-5.85-8.62-17.55,0-4.92.31-13.4T1747,1102q.46-10,1.08-20.48t1.08-19.71q.45-9.24.76-16.16c.2-4.62.31-8,.31-10a108.14,108.14,0,0,0-1.07-12.63q-1.1-8.31-2.47-18.17t-3.24-20.32q-1.83-10.47-3.22-19.55t-2.47-15.4a64.64,64.64,0,0,1-1.08-8.16,14.81,14.81,0,0,1,1.08-3.85q1.08-2.92,3.54-2.93,4.31.31,9.24.31h10.16c1.64,0,3.55,0,5.7-.15s4.26-.26,6.31-.47,4-.35,5.7-.46,3-.15,3.85-.15q10.45,0,10.47,8.93v151.5q-.63,2.48-1.24,6.16a49,49,0,0,0-.61,8q0,10.79,4.93,16.63,6.47,8,21.25,8,19.08,0,36-11.71,13.86-9.54,13.86-25.56,0-33.56-16.93-44-9.87-5.85-36-21.25l19.39-4.93q26.17,0,51.74,15.09Q1917.17,1059.64,1917.16,1089.19Zm82.84,39.72q0,28.33-24.32,28.33-13.56,0-25.88-8.62t-12.31-19.71q2.15-18.48,3.54-49.58t1.39-77q0-7.08-.62-15.09T1940,970.32q-.3-3.08-.92-6.77c-.42-2.47-.93-5.13-1.54-8q0-10.45,12.16-15.4t32.49-4.92q10.47,0,14.78,6.16,3.07,4,3.08,11.08-1.55,22.8-1.85,34.18-1.23,19.71-1.69,30.49t-.46,12.32c.2,6,.41,11.08.62,15.39s.4,8.63.61,12.94.41,8.93.61,13.86.41,10.88.62,17.86q.61,12,.93,21.86T2000,1128.91Z"/><path class="cls-2" d="M766.81,389.12C758.2,380.51,749.19,371.5,745,369s-9.64,8.63-13.46,12.16-13.29,13.49-20.52,19.45-4,7.74.72,12.43c2.37,2.36,6.25,4.92,10.84,9.5s5.17,6.51,13.28,14.61,11.64,4.27,16.32-.41,7-7.05,15.1-14.2,15.51-14.8,13.77-17.48S775.42,397.73,766.81,389.12Z"/><path class="cls-2" d="M1001.36,185.87c2.69-1.74,7.34-5.67,15.95-14.28s17.62-17.62,20.1-21.78-8.63-9.63-12.15-13.46-13.49-13.29-19.45-20.52-7.75-4-12.43.72c-2.37,2.37-4.92,6.26-9.5,10.84s-6.51,5.17-14.61,13.28-4.28,11.64.41,16.32,7,7,14.2,15.1S998.68,187.6,1001.36,185.87Z"/><path class="cls-2" d="M1291.28,398.51c-2.37-2.37-6.25-4.92-10.83-9.5s-5.18-6.51-13.28-14.61-11.65-4.28-16.33.41-7,7-15.1,14.2-15.51,14.8-13.77,17.48,5.66,7.34,14.27,15.95,17.62,17.62,21.78,20.1,9.64-8.63,13.46-12.15,13.3-13.49,20.52-19.45S1296,403.19,1291.28,398.51Z"/><path class="cls-2" d="M1400.88,396.5c-10.77-12.19-56.12-53.9-65.59-63.76s-61.81-63.64-67.36-70.18-10.87-7.55-17.62.5-23.11,18.22-34.49,29.6S1189.4,326.33,1180,336s-35.44,32.83-39,36.39-4.63,2.77-6.77.62-9.91-10.33-12.63-13.31-9.84-9.16-15.68-15-6.19-6.19,2-14.42,31.43-28.11,46.53-42.61,42.34-46.26,46.52-50.44,15.53-15.53,18.59-19.17-5.49-9.56-10.32-14.09-7.24-6.3-12.43-11.49-8-5.23-11.79-.09-27.23,25.82-37,35.64-32.62,35.75-40.27,43.1-21.35,22.45-32,31.51-17.82-5.95-22.66-11.88-11.92-10.83-17-15.92-4.63-3.61,1.94-10.53,23.43-22.38,34.41-33.06,14.85-19.93,27-32.92,27.47-22.93,33.66-29.12,22.47-19.11,15.94-24.55-11.69-13.59-22.67-25.07-19.13-18.93-34.42-32-16.32-18.73-34.85-37.25S1022.66,20.5,1013,8.62,1001.36-3,988,10.38s-37.2,32.34-59.21,54.36-69.06,73.91-75.84,80.69,13.88,22.35,19.92,28.39S888,191.57,901.39,205s31,24.73,37.83,31.58,24.91,27.11,29.2,31.41-5.3,11.35-10.54,16.92S947,294.53,940,301.48s-9.68,3.58-14.91-1.65-19.4-19.4-28.31-30.22S867.53,244,857.33,235s-27.26-31.42-38.68-41.6-16.36,2.68-24.21,10.53-14.85,12.68-6.72,19.32,16.24,19.33,24.77,27.86,27,24,38.86,35.78,39.54,41.55,48.13,48.13-6.55,13.58-9.67,17.85S868.07,377,864.12,374.77s-17.8-20-40.36-43.68-42.42-31.95-57.64-54.32-24.79-22.47-33-11.58-45.38,45.37-64.86,61.34-76,72.22-72.41,84,34.64,32.52,67.44,65.32c6.63,6.63,28.36,29.41,36,37.06s31.32,32.41,37.72,38.8,7.74,6.86,14,.57,15.74-16.79,27.12-28.17,26.48-25,44.07-42.62,28.81-30.26,38-39.45,30.69,20.43,38,27.74-8.76,18.15-20,29.36-33.22,30.82-44,41.56-34,37.59-45.51,47.92S794.44,609,803,617.64s10.72,8.47,19.38-.19,16.1-17.74,27.71-29.35,24.61-19,40.52-34.92,25.19-30.8,34.66-40.26,15.35-.82,22.06,5.89L968,539.42c5.1,5.1-16,22-27.41,33.39s-23.77,22.35-35.85,34.44-36,38.53-46.28,47.69-.83,17.27,9.3,27.41,33.73,32.18,42.44,40.89,30.78,34,42.2,45.38,35.85,34.22,43.77,42.14,16.61-7.41,22.21-13,19.17-18,32.33-31.11,27.65-29,41.14-42.53,29.84-27.18,46.59-45.2,3.73-26.1-10-39.86-25.64-29.67-41-45-39.82-34.29-49.89-44.09-.13-15.3,6.85-21.48,14.45-13.07,21.7-20.31,19.65,13.06,30.25,23.67,27.52,25.91,39.34,37.72,30.87,32.49,44.7,46.32,20.54,2.95,25.48-4.33,19.23-11.65,12.79-20.11-24.25-22.33-34.39-32.47-39.52-41.7-50.85-54.4-29.5-25.95-32.11-28.57,8.6-13,15.34-18.38,18.5-21.64,21.49-19.93,11.64,13.19,21.71,23.26,22.62,18.86,39.07,35.31,33.06,35.27,47.9,50.11,29.7-3.78,39.77-13.73c25.59-25.27,41.44-36.85,50.44-46.21,14.66-15.27,46.59-52.62,51.72-59.17S1411.65,408.69,1400.88,396.5ZM830.13,411.37c-7.75,7.75-27.21,23.73-36.83,33.35S780,462.42,769.43,473s-22.51,27.73-35.09,15.15-27.59-28.8-38.22-39.42-29.65-28.45-37-35.85c-4.63-4.63-6.54-6.84,3.63-15.6s30.55-32.68,40.37-42.49,28.36-26.42,35.38-34.1,12,.24,18.75,8,28.12,25.75,36.19,35,20.8,22,27.9,29.08S837.89,403.61,830.13,411.37ZM960.62,199.18c-9.62-9.62-16.62-14.4-27.19-25s-27.74-22.5-15.15-35.09,28.8-27.59,39.42-38.21,28.44-29.65,35.84-37.06c4.63-4.63,6.85-6.54,15.61,3.63s32.67,30.56,42.49,40.38,26.42,28.35,34.1,35.37-.25,12-8,18.76-25.75,28.12-35,36.18-22,20.81-29.09,27.9-10.88,16.6-18.63,8.85S970.23,208.79,960.62,199.18Zm9.81,131.45c8.1-8.11,10-8.7,14.61-13.28s7.14-8.47,9.5-10.84c4.68-4.68,6.47-7.95,12.43-.72s14.48,13.25,18,17.08,16.09,12.75,13.61,16.9-11.5,13.17-20.11,21.78-13.26,12.54-16,14.28S992.19,370.1,985,362.05s-9.52-10.41-14.2-15.1S962.32,338.73,970.43,330.63Zm-13.81,93.13c-8,7.15-10.41,9.52-15.1,14.2s-8.22,8.51-16.32.41-8.7-10-13.28-14.61-8.47-7.14-10.84-9.51c-4.68-4.68-8-6.46-.72-12.42s16.69-15.93,20.52-19.45,9.31-14.65,13.46-12.16,13.17,11.5,21.78,20.11,12.54,13.26,14.28,15.94S964.67,416.61,956.62,423.76Zm85.48,190c9.62,9.61,16.62,14.39,27.19,25s27.74,22.5,15.15,35.09S1055.65,701.41,1045,712s-28.44,29.65-35.84,37.05c-4.63,4.63-6.85,6.54-15.61-3.62s-32.67-30.56-42.49-40.38-26.42-28.36-34.1-35.37.25-12,8-18.76,25.75-28.12,35-36.19,22-20.8,29.09-27.9,10.88-16.59,18.63-8.84S1032.49,604.15,1042.1,613.77Zm-6.76-133.69c-7.23,6-13.26,14.48-17.08,18s-12.75,16.09-16.91,13.6-13.16-11.5-21.77-20.11S967,478.32,965.3,475.64s5.72-10.33,13.77-17.49,10.42-9.51,15.1-14.2,8.22-8.51,16.33-.41,8.7,10,13.28,14.61,8.47,7.14,10.83,9.51C1039.3,472.34,1042.57,474.12,1035.34,480.08Zm68.39-72.66c-2.49,4.16-11.5,13.17-20.11,21.78s-13.26,12.54-15.94,14.28-10.33-5.72-17.49-13.78-9.52-10.41-14.2-15.09-8.51-8.23-.41-16.33,10-8.7,14.61-13.28,7.14-8.47,9.51-10.84c4.68-4.68,6.46-8,12.42-.72s15.93,16.69,19.46,20.52S1106.22,403.27,1103.73,407.42Zm236.62,6.86C1330.19,423,1309.8,447,1300,456.77s-28.36,26.42-35.37,34.1-12-.24-18.76-8-28.12-25.75-36.19-35-20.8-22-27.9-29.09-16.6-10.88-8.84-18.63,26.12-24.83,35.73-34.44,14.4-16.62,25-27.19,22.5-27.74,35.08-15.15,25.93,30.46,36.55,41.08,31.32,26.78,38.72,34.18C1348.61,403.31,1350.52,405.52,1340.35,414.28Z"/><path class="cls-2" d="M1001.36,627.08c-2.68,1.73-7.33,5.67-15.94,14.27S967.8,659,965.31,663.13s8.63,9.64,12.15,13.46,13.49,13.3,19.46,20.52,7.74,4,12.42-.72c2.37-2.37,4.92-6.25,9.51-10.83s6.5-5.18,14.61-13.28,4.27-11.65-.41-16.33-7-7.05-14.2-15.1S1004,625.34,1001.36,627.08Z"/></svg>