<svg xmlns="http://www.w3.org/2000/svg" viewBox="0 0 1343.11 678.21"><defs><style>.cls-1{fill:#ba9b4f;}.cls-2{fill:#2e2d4b;}</style></defs><polygon class="cls-1" points="212.35 653.47 221.87 653.47 221.87 677.8 227.19 677.8 227.19 653.47 236.76 653.47 236.76 648.93 212.35 648.93 212.35 653.47"/><polygon class="cls-1" points="264.95 665.34 278.89 665.34 278.89 660.93 264.95 660.93 264.95 653.43 280.66 653.43 280.66 648.93 259.59 648.93 259.59 677.8 281.24 677.8 281.24 673.3 264.95 673.3 264.95 665.34"/><path class="cls-1" d="M323.43,650.17a15.85,15.85,0,0,0-6.53-1.24H305V677.8h5.36v-8.33h6.52a16,16,0,0,0,6.53-1.24,9.38,9.38,0,0,0,4.27-3.57,10.8,10.8,0,0,0,0-10.95A9.44,9.44,0,0,0,323.43,650.17ZM322,663.45a8.29,8.29,0,0,1-5.32,1.48h-6.27V653.47h6.27A8.23,8.23,0,0,1,322,655a5.89,5.89,0,0,1,0,8.5Z"/><polygon class="cls-1" points="379.59 648.93 368.29 668.02 356.87 648.93 352.46 648.93 352.46 677.8 357.53 677.8 357.53 658.91 367.01 674.5 369.4 674.5 378.89 658.66 378.93 677.8 384.04 677.8 383.96 648.93 379.59 648.93"/><path class="cls-1" d="M419.78,648.93l-13,28.87h5.53l2.84-6.68H429.6l2.88,6.68h5.61l-13-28.87Zm-2.8,18,5.4-12.62,5.44,12.62Z"/><path class="cls-1" d="M465.61,660.89a35,35,0,0,1-1.3,9.42c-.7,2-1.89,3-3.57,3a4.12,4.12,0,0,1-1.23-.16l-.38,4.66a14.78,14.78,0,0,0,2.93.41,6.06,6.06,0,0,0,4.79-2,12.4,12.4,0,0,0,2.51-5.73,60.82,60.82,0,0,0,1-9.84l.25-7.21H482V677.8h5.28V648.93H466Z"/><path class="cls-1" d="M526.43,658.7h-8v-9.77h-5.28V677.8h12.42q5.52,0,8.57-2.54c2-1.69,3.05-4.13,3.05-7.32s-.92-5.35-2.78-6.91S529.9,658.7,526.43,658.7Zm3.71,13.53a7.21,7.21,0,0,1-4.82,1.44h-6.89V662.79h6.89q6.51,0,6.51,5.23A5.21,5.21,0,0,1,530.14,672.23Z"/><polygon class="cls-1" points="580.75 660.85 565.83 660.85 565.83 648.93 560.47 648.93 560.47 677.8 565.83 677.8 565.83 665.42 580.75 665.42 580.75 677.8 586.11 677.8 586.11 648.93 580.75 648.93 580.75 660.85"/><path class="cls-1" d="M625.25,658.7h-8v-9.77H612V677.8h12.41q5.52,0,8.58-2.54a9,9,0,0,0,3-7.32q0-4.58-2.78-6.91T625.25,658.7ZM629,672.23a7.25,7.25,0,0,1-4.83,1.44h-6.88V662.79h6.88q6.52,0,6.52,5.23A5.24,5.24,0,0,1,629,672.23Z"/><rect class="cls-1" x="640.17" y="648.93" width="5.28" height="28.87"/><path class="cls-1" d="M689.76,645.45a5.48,5.48,0,0,0,2-4.44H688a3,3,0,0,1-1,2.35,4.32,4.32,0,0,1-2.79.83,4.08,4.08,0,0,1-2.76-.83,3.08,3.08,0,0,1-1-2.35h-3.75a5.53,5.53,0,0,0,1.92,4.46,11,11,0,0,0,11.17,0Z"/><polygon class="cls-1" points="676.63 669.42 676.63 648.93 671.35 648.93 671.35 677.8 676.34 677.8 691.84 657.34 691.84 677.8 697.12 677.8 697.12 648.93 692.13 648.93 676.63 669.42"/><polygon class="cls-1" points="779.31 648.93 773.61 648.93 765.33 661.01 759.8 661.01 759.8 648.93 754.52 648.93 754.52 677.8 759.8 677.8 759.8 665.63 765.16 665.63 773.61 677.8 779.68 677.8 769.45 662.91 779.31 648.93"/><path class="cls-1" d="M822.53,650.44a17.46,17.46,0,0,0-15.92,0,14.23,14.23,0,0,0-5.57,5.31A15.34,15.34,0,0,0,801,671a14.26,14.26,0,0,0,5.57,5.32,17.46,17.46,0,0,0,15.92,0,14.18,14.18,0,0,0,5.56-5.3,15.34,15.34,0,0,0,0-15.25A14.11,14.11,0,0,0,822.53,650.44Zm.86,18.14a9.45,9.45,0,0,1-3.63,3.63,11,11,0,0,1-10.39,0,9.45,9.45,0,0,1-3.63-3.63,11,11,0,0,1,0-10.43,9.31,9.31,0,0,1,3.63-3.63,11,11,0,0,1,10.39,0,9.31,9.31,0,0,1,3.63,3.63,11,11,0,0,1,0,10.43Z"/><polygon class="cls-1" points="881.22 648.93 869.92 668.02 858.49 648.93 854.08 648.93 854.08 677.8 859.15 677.8 859.15 658.91 868.64 674.5 871.03 674.5 880.51 658.66 880.55 677.8 885.67 677.8 885.59 648.93 881.22 648.93"/><polygon class="cls-1" points="911.53 677.8 916.8 677.8 916.8 653.47 931.77 653.47 931.77 677.8 937.05 677.8 937.05 648.93 911.53 648.93 911.53 677.8"/><path class="cls-1" d="M966.4,660.89a35,35,0,0,1-1.3,9.42c-.7,2-1.89,3-3.57,3a4.24,4.24,0,0,1-1.24-.16l-.37,4.66a14.78,14.78,0,0,0,2.93.41,6,6,0,0,0,4.78-2,12.3,12.3,0,0,0,2.52-5.73,60.82,60.82,0,0,0,1-9.84l.25-7.21h11.38V677.8h5.28V648.93H966.81Z"/><polygon class="cls-1" points="1019.28 665.34 1033.22 665.34 1033.22 660.93 1019.28 660.93 1019.28 653.43 1034.99 653.43 1034.99 648.93 1013.92 648.93 1013.92 677.8 1035.57 677.8 1035.57 673.3 1019.28 673.3 1019.28 665.34"/><polygon class="cls-1" points="1084.14 648.93 1078.45 648.93 1070.16 661.01 1064.63 661.01 1064.63 648.93 1059.36 648.93 1059.36 677.8 1064.63 677.8 1064.63 665.63 1069.99 665.63 1078.45 677.8 1084.51 677.8 1074.28 662.91 1084.14 648.93"/><path class="cls-1" d="M1119.59,673.51a10.89,10.89,0,0,1-5.32-1.3,9.37,9.37,0,0,1-3.67-3.61,11,11,0,0,1,0-10.47,9.3,9.3,0,0,1,3.67-3.61,10.78,10.78,0,0,1,5.32-1.3,10.12,10.12,0,0,1,7.71,3.38l3.46-3.26a13.1,13.1,0,0,0-5-3.58,17.34,17.34,0,0,0-14.37.68,14.13,14.13,0,0,0-5.54,5.3,15.47,15.47,0,0,0,0,15.25,14.08,14.08,0,0,0,5.52,5.3,16.26,16.26,0,0,0,7.9,1.92,16.5,16.5,0,0,0,6.49-1.24,13,13,0,0,0,5-3.59l-3.46-3.29A10.05,10.05,0,0,1,1119.59,673.51Z"/><path class="cls-1" d="M685.24,185h60.58c16.06,0,15.62,16.34,15.62,16.34h7.39v-33.4H685.24Z"/><path class="cls-1" d="M658.44,77.68a13.12,13.12,0,1,0,13.12-13.12A13.11,13.11,0,0,0,658.44,77.68Z"/><path class="cls-1" d="M779.63,99.39C752.07,61.05,715.27,26.72,676,2.72L671.56,0l-4.45,2.72c-39.27,24-76.06,58.33-103.62,96.67C534.36,139.9,518.32,181.67,518.32,217c0,73.3,64.18,133.4,144.74,137.38V361c0,16-16.34,15.58-16.34,15.58v7.39h49.67v-7.39s-15.19.41-16.27-14V258.11l0-25.05H741.4a15.5,15.5,0,0,1,0,31H685.24v17.06H741.4a32.56,32.56,0,1,0,0-65.12H602.55V199.63c0-8.91-4-11.9-8.93-11.9V185H663v25.87h17.07V151.57c0-8.91-4-11.91-8.94-11.91v-2.75h69c20.83,0,25.2,14.75,25.2,14.75l6.72-2.57-8.91-29.24H579.85L571,149.09l6.72,2.57s4.36-14.75,25.19-14.75H663v31H569.15v7.38s16.34-.44,16.34,15.62v67.2c0,16.06-16.34,15.62-16.34,15.62v7.38h93.91v56.17c-71.14-3.9-127.68-56.36-127.68-120.29,0-31.79,14.9-70,42-107.65,25.22-35.08,58.53-66.62,94.22-89.3,35.69,22.68,69,54.22,94.21,89.3,27.06,37.63,42,75.86,42,107.65,0,62.36-53.79,113.81-122.46,119.92V354c78.09-6.25,139.52-65.32,139.52-137C824.79,181.67,808.75,139.9,779.63,99.39ZM663,264.06H602.55V247.71c0-8.91-4-11.9-8.93-11.9v-2.75H663Z"/><polygon class="cls-2" points="0 501.35 14.32 501.35 15.87 487.58 52.9 487.58 52.9 568.07 40.68 568.07 40.68 583.78 80.83 583.78 80.83 568.07 68.61 568.07 68.61 487.58 105.8 487.58 107.34 501.35 121.66 501.35 121.66 471.87 0 471.87 0 501.35"/><polygon class="cls-2" points="272.95 568.07 210.4 568.07 210.4 532.59 259.12 532.59 259.12 516.88 210.4 516.88 210.4 487.58 271.4 487.58 272.95 501.35 287.27 501.35 287.27 471.87 182.62 471.87 182.62 487.58 194.68 487.58 194.68 568.07 182.62 568.07 182.62 583.78 288.81 583.78 288.81 554.3 274.49 554.3 272.95 568.07"/><path class="cls-2" d="M449.85,483.51a41,41,0,0,0-12.48-8.59,35.7,35.7,0,0,0-14.51-3.05H351.12v15.71h12.07v80.49H351.12v15.72h40V568.07H378.91V551.15H423A35,35,0,0,0,437.51,548a41.5,41.5,0,0,0,12.34-8.53,39.07,39.07,0,0,0,11.65-28.07,38.84,38.84,0,0,0-3-15.15A40.17,40.17,0,0,0,449.85,483.51ZM444,520.71a24.83,24.83,0,0,1-4.92,7.63,23.17,23.17,0,0,1-7.33,5.19,21.8,21.8,0,0,1-9,1.9h-43.8V487.58h42.87a24.21,24.21,0,0,1,17,7,24.2,24.2,0,0,1,5.09,7.56,23.2,23.2,0,0,1,1.9,9.3A24.06,24.06,0,0,1,444,520.71Z"/><polygon class="cls-2" points="592.99 535.59 586.68 535.59 568.12 471.87 519.26 471.87 519.26 487.58 531.33 487.58 531.33 568.07 519.26 568.07 519.26 583.78 559.26 583.78 559.26 568.07 547.04 568.07 547.04 487.58 556.34 487.58 574.9 551.3 604.78 551.3 623.5 487.58 632.63 487.58 632.63 568.07 620.41 568.07 620.41 583.78 660.57 583.78 660.57 568.07 648.35 568.07 648.35 487.58 660.57 487.58 660.57 471.87 611.71 471.87 592.99 535.59"/><path class="cls-2" d="M824.85,526.75a35.74,35.74,0,0,0-10.71-7.21,31.86,31.86,0,0,0-12.89-2.67H750.18V487.58h59.3L811,501.35h14.32V471.87h-103v15.71h12.07v80.49H722.4v15.72h78.85a32.67,32.67,0,0,0,12.9-2.6,33.69,33.69,0,0,0,10.69-7.2,34.81,34.81,0,0,0,7.28-10.7,32.15,32.15,0,0,0,2.66-13,31.77,31.77,0,0,0-2.66-12.88A34,34,0,0,0,824.85,526.75Zm-7.21,30.49a18.21,18.21,0,0,1-3.78,5.62,18.45,18.45,0,0,1-5.62,3.78,17,17,0,0,1-6.83,1.43H750.18V532.59h51.07a16.76,16.76,0,0,1,6.92,1.44,19.25,19.25,0,0,1,5.59,3.75,17.94,17.94,0,0,1,3.87,5.55,16.79,16.79,0,0,1,1.44,6.92A17.41,17.41,0,0,1,817.64,557.24Z"/><path class="cls-2" d="M968.57,487.58h11.86L964,535.43H933.35l-22.12-63.56H889.38v15.71h11.81l22,63.57h35.28l-2.15,6.65a14,14,0,0,1-3,4.88A17.33,17.33,0,0,1,949,566a23,23,0,0,1-4.79,1.9,18,18,0,0,1-4.54.66,18.89,18.89,0,0,1-8.53-1.93,26.17,26.17,0,0,1-5.91-4.08l-9.75,11.31a42.51,42.51,0,0,0,10.51,7.55,30.75,30.75,0,0,0,13.68,2.87c7.2,0,13.41-1.72,18.46-5.1s8.88-8.67,11.44-15.77l27.41-75.8h11.79V471.87H968.57Z"/><path class="cls-2" d="M1167.5,483.51a41,41,0,0,0-12.48-8.59,35.7,35.7,0,0,0-14.51-3.05h-71.73v15.71h12.06v80.49h-12.06v15.72h40V568.07h-12.22V551.15h44.11a35,35,0,0,0,14.49-3.12,41.5,41.5,0,0,0,12.34-8.53,39,39,0,0,0,11.65-28.07,38.84,38.84,0,0,0-3-15.15A40.17,40.17,0,0,0,1167.5,483.51Zm-5.88,37.2a24.64,24.64,0,0,1-4.92,7.63,23.17,23.17,0,0,1-7.33,5.19,21.8,21.8,0,0,1-9,1.9h-43.8V487.58h42.87a24.21,24.21,0,0,1,17,7,24.4,24.4,0,0,1,5.1,7.56,23.19,23.19,0,0,1,1.89,9.3A23.88,23.88,0,0,1,1161.62,520.71Z"/><polygon class="cls-2" points="1236.91 471.87 1236.91 487.58 1248.98 487.58 1248.98 568.07 1236.91 568.07 1236.91 583.78 1276.91 583.78 1276.91 568.07 1264.69 568.07 1264.69 487.58 1327.24 487.58 1328.79 501.35 1343.11 501.35 1343.11 471.87 1236.91 471.87"/></svg>