<svg id="Слой_1" data-name="Слой 1" xmlns="http://www.w3.org/2000/svg" viewBox="0 0 2000 302.4"><defs><style>.cls-1{fill:#fff;}</style></defs><path class="cls-1" d="M247.28,7.08a11.08,11.08,0,0,0-4.93-5.54A16.49,16.49,0,0,0,235,0H16Q8,0,3.39,10.78A41,41,0,0,0,0,26.18Q0,45.27,3.7,53.89q4.92,12,19.4,12,24,0,28.94-19.56,5.55-19.86,31.72-19.86,11.08,0,15.55,7.85t4.47,25.36q0,10.77-.93,35.05-.3,12.3-.61,23.83t-.93,22.9l-8.62,70.72q0,6.45,7.39,8.6a23.94,23.94,0,0,0,5.39.93q3.54.3,7.7.46t8.16.15h6.77q14.79,0,19.4-3.22t4.62-9.69q-2.76-12-4.31-20.44t-2.31-14.61c-.51-4.1-.82-7.78-.92-11.06s-.16-6.67-.16-10.15V46.77a19.48,19.48,0,0,1,6-14.29q6-6,18.32-6,21.87,0,26.48,19.86,4.62,19.57,24,19.56,18.48,0,23.72-3.69,8-6.16,8-26.49A139.81,139.81,0,0,0,250.05,18,39.36,39.36,0,0,0,247.28,7.08Z"/><path class="cls-1" d="M492.46,154a18.9,18.9,0,0,0-8.31-1.54h-3.08a21.23,21.23,0,0,0-3.39.31q-25.87,0-41.88,21.4-16.33,21.41-35.72,21.4-26.79,0-51.12-14.59-30.48-18.62-30.49-51.51a8.86,8.86,0,0,1,1.54-4.65,15.89,15.89,0,0,1,4-4.35,26.39,26.39,0,0,1,5.23-3.1,13.44,13.44,0,0,1,5.54-1.24q8,0,17.71.5t21.09,1.19q11.4.67,21.4,1.19t18.64.5c1.23.21,2.82.46,4.77.77a38.16,38.16,0,0,0,6,.46q7.39,0,12-2.8T441,107c0-5.39-1.08-9.29-3.23-11.67s-5.9-3.58-11.24-3.58q-16.94,0-38.8,2t-43.11,4.77q-12.93,0-20.48-3.68t-7.54-13.18q0-24.54,25.86-42,21.87-15,45.58-15,12.93,0,42.19,24.94Q443.49,61,459.2,61q9.24,0,13.86-1.23,9.85-2.46,9.85-9.24a30.18,30.18,0,0,0-.61-3.69q-6.78-22.49-46.5-35.41a176.5,176.5,0,0,0-56.05-9.55Q329.88,1.85,300,23.1q-23.1,16.32-32.95,45.57-6.46,19.41-6.47,43.11a100.51,100.51,0,0,0,2.31,22q2.31,10.32,9.39,23.56a121.1,121.1,0,0,0,39.11,43.11Q343.1,222,388.07,222q44.64,0,77.91-22.18,29.56-19.69,29.56-39.72Q495.54,155.51,492.46,154Z"/><path class="cls-1" d="M663.82,21.56Q634.57,2.78,565.9,2.77q-26.49,0-38.18,8-8.62,5.85-8.63,17.55,0,4.94,3.08,16.32A30.45,30.45,0,0,1,523.4,52v69q0,17.87-.92,38.8t-3.08,45Q516.94,235,512,273.14c-.62,4.72-1.23,9.4-1.85,14s-1.23,9.29-1.85,14a32.5,32.5,0,0,0,6.16.31q4.32-.32,9.24-.31h10.16q2.48,0,5.7.15t6.31.46c2,.2,4,.36,5.7.46s3,.16,3.85.16q10.47,0,10.47-8.93V68.06q-.61-2.48-1.23-6.16a48.87,48.87,0,0,1-.62-8q0-10.77,4.93-16.63,6.46-8,21.25-8,19.08,0,36,11.7,13.85,9.85,13.85,25.56,0,33.56-16.93,44-9.85,6.17-36,21.25l19.4,4.93q26.18,0,51.73-15.09,32-19.1,32-48.66Q690.31,38.19,663.82,21.56Z"/><path class="cls-1" d="M945.87,157.05q-.32-9.86-.31-19.4V49.89c0-.41.15-2,.46-4.78s.66-6.82,1.08-12.16a19.49,19.49,0,0,0,.31-3.69V24q0-9.54-4.62-14.47T925.23,4.62q-16.32,0-36,29L858.1,87.46q-16.62,28.64-25.86,28.64-16.95,0-34.8-28.95-7.1-13.25-13.86-26.48t-13.86-26.8Q754.95,5.24,744.78,5.24q-16.93,0-27.41,3.69-13.85,5.24-13.85,15.4l3.69,21.55q.74,6.16,1.3,14.79T709.06,81q0,47.43-1,78.52t-2.69,49.28q0,8.93,5.24,11.39t19.4,2.46q35.1,0,35.11-13.85-2.16-20.64-3.85-42.5t-1.7-50.19a40.39,40.39,0,0,1,.93-15.09q1.53-6.17,6.77-6.16,7.4,0,25.87,28.94t34.8,29q19.7,0,33.87-28.95t25.25-28.94q6.47,0,9.24,7.39a38.14,38.14,0,0,1,1.85,12.62v1.85a13.61,13.61,0,0,1-.31,2.46q0,9.56-.31,21.1t-.92,25.4q-1.54,27.42-2.78,44.35c0,4.51.72,7.75,2.16,9.7s5,2.92,10.78,2.92q22.47,0,32.33-3.85T949,210l-2.16-33.26Q946.16,166.91,945.87,157.05Z"/><path class="cls-1" d="M1223,184.46q-24.64,0-35.11-12-1.85-2.77-16.62-30.18-8-14.78-12.32-22.79c-2.88-5.33-4.52-8.52-4.93-9.54q-23.1-57.28-41.88-82.53-19.1-25.56-38.49-25.56A239.86,239.86,0,0,0,1022,7.08q-19.73,4-19.71,8.32,0,9.85,8.62,19.4,7.39,8.31,11.7,8.31a124.87,124.87,0,0,0,18.17-1.84,115.78,115.78,0,0,1,16-1.85q10.47,0,15.86,6.31T1078,69.6q0,6.47-5.08,14.62A139,139,0,0,1,1060,101.47q-7.86,9.09-17.56,18.47t-18.63,18.33q-8.92,8.92-16,16.93a69.17,69.17,0,0,0-10.16,14.17q-28,32.64-28,40.65a11.91,11.91,0,0,0,3.55,8.16c2.35,2.57,5.9,3.85,10.62,3.85q24.63,0,47.73-31.72,3.39-4.31,34.49-58.82,17.87-31.41,30.79-31.41,8.33,0,20.33,31.72,16.62,44,25.56,58.82Q1161.45,222,1187.32,222t42.19-5.24q18.16-6.15,18.16-18.47Q1247.67,184.46,1223,184.46Z"/><path class="cls-1" d="M1468.25,155.2q-.62-16-1.08-29.71t-.46-25.41q3.7-69.59,3.7-81.29,0-4-8.93-8.63-11.4-5.85-30.49-5.85-14.48,0-34.8,30.8-8.93,15.7-17.7,30.79t-17.71,30.79q-20.64,35.73-34.79,44.66a10.39,10.39,0,0,1-5.85,2.15q-4,0-5.86-4.93a33.33,33.33,0,0,1-1.85-11.7q0-9.54,2.77-41.88Q1316.75,68.67,1318,52t2.77-34.18q0-7.08-9.7-11.39t-31.87-4.31a16.43,16.43,0,0,0-11.55,4.77,14.63,14.63,0,0,0-5.08,10.93q0,6.78.31,22.63t.92,41.12q.62,25.24,1.08,43.11t.77,28.33q.3,10.47.46,21.71t.46,23.86q0,14.79,9.24,20.33,6.15,4,20.33,4c2,0,4.92-.11,8.62-.31s6.25-.31,7.69-.31q8.33,0,29.26-40.34,9.54-18.78,18.78-37.41t18.79-37.11q20.63-40.65,30.79-40.65,6.46,0,8.62,14.17a93,93,0,0,1,.93,13.24,32.93,32.93,0,0,1-.31,5.85l-4,101.93q.6,8.63,10.62,14.47t28.18,5.85q8.61,0,12.93-2t4.31-8.16q-.93-12.61-1.69-26.79T1468.25,155.2Z"/><path class="cls-1" d="M1705.27,30q.93-10.62,1.85-19.55,0-4.62-7.09-6.62t-23.71-2q-11.07,0-17.24,3.39-8.31,4.62-8.31,15.09,0,1.23.92,7.08t2.46,16.32q.61,3.39,1.23,8c.41,3.07,1,6.67,1.85,10.77q0,19.09-10.16,25.56-8,5.24-28.33,5.24-12.93-.32-24-.77T1575,92.08q-11.09,0-15.24-5.7t-4.16-16.78q0-3.39.47-8.93c.31-3.7.86-8.11,1.69-13.25s1.39-9.54,1.69-13.24.46-6.67.46-8.93q0-11.08-3.69-16.63-4.62-6.76-15.4-6.77a62.74,62.74,0,0,0-21.25,4q-15.09,4.94-15.08,14.48l4.3,35.72a195.92,195.92,0,0,1,1.7,23.71q.15,12.31.15,25.56,0,1.23-.77,13.08t-2.3,34.65q-1.56,22.78-2.31,34.95t-.77,14a19,19,0,0,0,6.62,14.63,23.19,23.19,0,0,0,16.16,6q13.24,0,22.18-3.69,12.3-4.94,12.31-16.94,0-1.84-2.77-28.33-1.55-13.55-2.31-20.94c-.51-4.93-.77-7.9-.77-8.93q0-16.32,9.54-22.17,6.78-4.62,21.25-4.62h31.42q18.46,0,27.09,4.31,12,6.17,12,22.48,0,23.1-1.69,36a120.61,120.61,0,0,1-4.77,22.17q0,10.17,5.23,16.32,3.69,4.32,8.31,4.31l10.17.62q13.23,0,21.25-4.62,11.38-6.46,11.39-22.79l-5.23-109.93q.3-12.94,1.84-33.26Q1704.35,40.64,1705.27,30Z"/><path class="cls-1" d="M1885.14,108.4q-25.56-15.09-51.74-15.09L1814,98.23q26.16,15.4,36,21.25Q1867,130,1867,163.52q0,16-13.86,25.56-16.93,11.7-36,11.7-14.79,0-21.25-8-4.93-5.85-4.93-16.63a48.79,48.79,0,0,1,.61-8q.62-3.7,1.24-6.16V10.47q0-8.93-10.47-8.93c-.82,0-2.11.06-3.85.15s-3.65.26-5.7.47-4.16.36-6.31.46-4.06.15-5.7.15h-10.16q-4.93,0-9.24-.3-2.46,0-3.54,2.92a14.81,14.81,0,0,0-1.08,3.85,64.64,64.64,0,0,0,1.08,8.16q1.08,6.32,2.47,15.4t3.22,19.55q1.86,10.47,3.24,20.33t2.47,18.16a108.48,108.48,0,0,1,1.07,12.63c0,2-.11,5.39-.31,10s-.46,10-.76,16.16-.67,12.73-1.08,19.71-.77,13.81-1.08,20.48-.57,12.83-.77,18.48-.31,10.11-.31,13.39q0,11.72,8.62,17.56,11.7,8,38.19,8,68.67,0,97.92-18.78,26.47-16.64,26.48-51.43Q1917.16,127.49,1885.14,108.4Z"/><path class="cls-1" d="M1998.46,157.36q-.32-10.47-.62-17.86t-.61-13.86q-.32-6.47-.61-12.93t-.62-15.4q0-1.53.46-12.32t1.69-30.48q.31-11.4,1.85-34.18,0-7.09-3.08-11.09-4.32-6.17-14.78-6.16-20.33,0-32.49,4.93T1937.49,23.4q.91,4.32,1.54,8t.92,6.78q1.23,8.93,1.85,16.93t.62,15.09q0,45.89-1.39,77t-3.54,49.58q0,11.08,12.31,19.7t25.88,8.63q24.32,0,24.32-28.33-.3-7.71-.61-17.56T1998.46,157.36Z"/></svg>