<svg id="Слой_1" data-name="Слой 1" xmlns="http://www.w3.org/2000/svg" viewBox="0 0 2000 459.09"><defs><style>.cls-1{fill:#fff;}.cls-2{fill:#dac99a;}</style></defs><path class="cls-1" d="M692.76,174q0,15.2-6,19.79-3.93,2.76-17.73,2.76-14.49,0-17.95-14.61-3.45-14.85-19.79-14.85-9.21,0-13.7,4.49a14.56,14.56,0,0,0-4.49,10.68v79.51q0,3.9.12,7.59c.08,2.45.31,5.2.69,8.27s1,6.7,1.73,10.91,1.84,9.31,3.22,15.28a8.25,8.25,0,0,1-3.45,7.24q-3.46,2.41-14.5,2.41h-5.07q-3,0-6.1-.11c-2.07-.08-4-.19-5.75-.35a18.15,18.15,0,0,1-4-.69q-5.52-1.6-5.52-6.43L580.9,253q.47-8.51.69-17.12t.46-17.81q.69-18.15.69-26.2,0-13.09-3.33-18.95t-11.63-5.87q-19.56,0-23.7,14.85-3.69,14.63-21.64,14.61-10.82,0-14.5-9-2.76-6.45-2.76-20.72a30.63,30.63,0,0,1,2.53-11.5q3.45-8.06,9.44-8.06H680.79a12.29,12.29,0,0,1,5.52,1.15,8.25,8.25,0,0,1,3.69,4.14,29.29,29.29,0,0,1,2.07,8.17A103.77,103.77,0,0,1,692.76,174Z"/><path class="cls-1" d="M875.55,267q0,15-22.09,29.69-24.87,16.58-58.24,16.57-33.6,0-57.3-16.11a90.4,90.4,0,0,1-29.23-32.22,71.18,71.18,0,0,1-7-17.61,75.19,75.19,0,0,1-1.73-16.45,101.47,101.47,0,0,1,4.83-32.22q7.37-21.87,24.63-34.07,22.32-15.87,59.61-15.88a131.92,131.92,0,0,1,41.89,7.14q29.69,9.66,34.75,26.47a22,22,0,0,1,.46,2.76q0,5.06-7.36,6.9a42.94,42.94,0,0,1-10.36.92q-11.73,0-21.63-8.51-21.87-18.65-31.54-18.65-17.72,0-34.06,11.23Q741.83,190,741.83,208.33q0,7.09,5.64,9.85t15.3,2.75q15.88-2.07,32.23-3.57t29-1.49q6,0,8.41,2.67t2.41,8.73q0,6-3.45,8.14a17.08,17.08,0,0,1-9,2.09,28.63,28.63,0,0,1-4.48-.34c-1.46-.23-2.65-.42-3.57-.58q-6.45,0-13.93-.38c-5-.25-10.32-.55-16-.88s-10.93-.64-15.77-.89-9.24-.38-13.23-.38a10.11,10.11,0,0,0-4.15.93,20.14,20.14,0,0,0-3.91,2.32,11.81,11.81,0,0,0-3,3.25,6.6,6.6,0,0,0-1.15,3.47q0,24.59,22.79,38.51a73.14,73.14,0,0,0,38.2,10.9q14.5,0,26.7-16,12-16,31.3-16a15.83,15.83,0,0,1,2.53-.23H867a14,14,0,0,1,6.21,1.15Q875.55,263.52,875.55,267Z"/><path class="cls-1" d="M1021.12,201.83q0,22.1-23.93,36.36-19.11,11.28-38.67,11.28L944,245.79q19.56-11.28,26.93-15.88,12.66-7.83,12.66-32.92,0-11.73-10.36-19.1a46.56,46.56,0,0,0-26.93-8.74q-11,0-15.88,6-3.68,4.38-3.68,12.43a36,36,0,0,0,.46,6c.3,1.84.61,3.38.92,4.61V366.62q0,6.67-7.83,6.68c-.61,0-1.57,0-2.87-.12s-2.73-.19-4.26-.35-3.11-.27-4.72-.34-3-.12-4.26-.12h-7.59q-3.69,0-6.91.24a23.8,23.8,0,0,1-4.6-.24q.69-5.3,1.38-10.47t1.38-10.47q3.69-28.55,5.53-51.09,1.61-18,2.3-33.61t.69-29V186.18a23,23,0,0,0-.92-5.53q-2.31-8.51-2.3-12.19,0-8.75,6.44-13.12,8.74-6,28.54-6,51.33,0,73.19,14Q1021.12,175.83,1021.12,201.83Z"/><path class="cls-1" d="M1207.07,310.81q-7.38,2.88-24.17,2.87c-4.3,0-7-.72-8.06-2.18s-1.61-3.88-1.61-7.25q.91-12.66,2.08-33.15.45-10.35.69-19t.22-15.77a9.44,9.44,0,0,0,.24-1.84v-1.38a28.26,28.26,0,0,0-1.39-9.44q-2.07-5.52-6.9-5.52-8.28,0-18.87,21.63T1124,261.44q-12.2,0-26-21.64t-19.33-21.63q-3.92,0-5.06,4.6a29.68,29.68,0,0,0-.93,6.68,27.77,27.77,0,0,0,.24,4.6q0,21.18,1.26,37.52t2.88,31.76q0,10.35-26.24,10.35-10.59,0-14.5-1.84t-3.91-8.51q1.24-13.57,2-36.83t.76-58.69q0-8.75-.41-15.19t-1-11.05L1031,165.46q0-7.59,10.35-11.5,7.83-2.78,20.49-2.77,7.59,0,18.64,21.41,5.3,10.13,10.36,20t10.35,19.8q13.35,21.63,26,21.63,6.91,0,19.34-21.4l23.24-40.28q14.73-21.63,26.93-21.64,9.66,0,13.12,3.68t3.45,10.82v3.92a14.61,14.61,0,0,1-.23,2.76c-.31,4-.57,7-.8,9.09s-.35,3.26-.35,3.57v65.59q0,7.14.23,14.5t.69,14.73l1.61,24.86Q1214.43,307.92,1207.07,310.81Z"/><path class="cls-1" d="M1437.7,295.5q0,9.21-13.57,13.81-12.21,3.92-31.54,3.91t-33.37-23.47q-6.67-11.06-19.1-44-9-23.7-15.19-23.71-9.67,0-23,23.48-23.25,40.74-25.78,44-17.25,23.7-35.67,23.7c-3.53,0-6.18-1-7.94-2.87a8.89,8.89,0,0,1-2.65-6.1q0-6,21-30.38a51.51,51.51,0,0,1,7.59-10.59q5.29-6,12-12.66t13.92-13.69q7.26-7,13.12-13.81a104.38,104.38,0,0,0,9.67-12.89q3.79-6.1,3.8-10.93,0-13.12-4-17.84T1295,176.74a87.53,87.53,0,0,0-12,1.38,93.39,93.39,0,0,1-13.58,1.38q-3.23,0-8.75-6.21-6.43-7.14-6.44-14.5,0-3.22,14.73-6.22a179.87,179.87,0,0,1,38.67-3.91q14.49,0,28.76,19.1,14,18.88,31.31,61.69c.3.77,1.53,3.14,3.68,7.13s5.21,9.67,9.21,17q11,20.49,12.42,22.56,7.83,9,26.24,9T1437.7,295.5Z"/><path class="cls-1" d="M1448.82,160.63a10.94,10.94,0,0,1,3.8-8.17,12.26,12.26,0,0,1,8.63-3.57q16.57,0,23.82,3.22t7.25,8.52q-1.15,13.13-2.07,25.55t-2.07,24.62q-2.07,24.18-2.07,31.31a24.9,24.9,0,0,0,1.38,8.74c.92,2.46,2.38,3.68,4.37,3.68a7.65,7.65,0,0,0,4.37-1.61q10.59-6.67,26-33.37,6.67-11.75,13.24-23t13.23-23q15.19-23,26-23,14.27,0,22.78,4.38,6.68,3.45,6.68,6.44,0,8.75-2.77,60.76,0,8.76.35,19t.81,22.21q.45,12,1,22.56t1.27,20q0,4.61-3.23,6.1c-2.14,1-5.37,1.49-9.66,1.49q-13.59,0-21.06-4.37T1563,298.26l3-76.18a24.59,24.59,0,0,0,.23-4.37,70,70,0,0,0-.69-9.9c-1.07-7.05-3.22-10.59-6.45-10.59q-7.59,0-23,30.39-7.14,13.8-14,27.73t-14,28q-15.65,30.17-21.86,30.15c-1.08,0-3,.08-5.76.23s-4.91.23-6.44.23q-10.59,0-15.19-3-6.92-4.14-6.91-15.19-.22-9.44-.34-17.84t-.35-16.22q-.22-7.83-.57-21.18t-.81-32.22q-.46-18.87-.69-30.72T1448.82,160.63Z"/><path class="cls-1" d="M1772.58,310.69q-6,3.45-15.88,3.46l-7.59-.47a8.07,8.07,0,0,1-6.22-3.22q-3.92-4.6-3.91-12.2a90.54,90.54,0,0,0,3.57-16.57,221,221,0,0,0,1.26-26.93q0-12.19-9-16.8-6.43-3.21-20.25-3.22h-23.47q-10.83,0-15.89,3.45-7.12,4.38-7.13,16.57,0,1.16.58,6.68t1.72,15.65q2.07,19.8,2.07,21.17,0,9-9.2,12.66-6.69,2.76-16.57,2.76a17.35,17.35,0,0,1-12.09-4.48,14.22,14.22,0,0,1-4.94-10.94q0-1.38.57-10.47t1.73-26.12q1.14-17,1.72-25.89c.38-5.91.58-9.17.58-9.79q0-9.88-.12-19.1a148.21,148.21,0,0,0-1.26-17.72l-3.22-26.7q0-7.12,11.27-10.82a46.86,46.86,0,0,1,15.88-3q8.06,0,11.51,5.06,2.76,4.16,2.76,12.43,0,2.53-.34,6.68c-.23,2.76-.66,6.06-1.27,9.89s-1,7.14-1.26,9.9-.35,5-.35,6.68q0,8.28,3.11,12.54t11.39,4.26q6.45,0,14.73.34t18,.58q15.2,0,21.18-3.91,7.59-4.85,7.59-19.11c-.61-3.06-1.07-5.75-1.38-8.05s-.62-4.3-.92-6q-1.15-7.82-1.84-12.2a53,53,0,0,1-.69-5.29q0-7.82,6.22-11.28,4.59-2.52,12.88-2.53,12.43,0,17.72,1.5c3.53,1,5.3,2.64,5.3,4.94q-.69,6.69-1.38,14.62t-1.15,16.92q-1.15,15.2-1.38,24.85l3.91,82.17Q1781.1,305.86,1772.58,310.69Z"/><path class="cls-1" d="M1938.09,264.66q0,26-19.79,38.44-21.87,14-73.2,14-19.8,0-28.54-6-6.43-4.36-6.44-13.12,0-3.67.23-10t.58-13.81c.23-5,.49-10.09.8-15.3s.58-10.13.81-14.73.42-8.63.57-12.09.23-5.94.23-7.48a81.06,81.06,0,0,0-.8-9.43q-.81-6.23-1.84-13.58t-2.42-15.19q-1.38-7.83-2.42-14.62t-1.84-11.5a47.7,47.7,0,0,1-.8-6.1,10.83,10.83,0,0,1,.8-2.88c.54-1.46,1.42-2.19,2.65-2.19,2.14.16,4.45.23,6.9.23h7.6c1.23,0,2.65,0,4.25-.11s3.19-.19,4.72-.35,3-.27,4.26-.34,2.27-.12,2.88-.12q7.82,0,7.82,6.67V268.34c-.31,1.23-.61,2.76-.92,4.61a36,36,0,0,0-.46,6q0,8.06,3.69,12.43,4.83,6,15.88,6a46.53,46.53,0,0,0,26.92-8.74q10.36-7.14,10.36-19.11,0-25.08-12.65-32.91-7.38-4.37-26.93-15.88l14.49-3.68q19.56,0,38.67,11.28Q1938.09,242.57,1938.09,264.66ZM2000,294.35q0,21.18-18.18,21.18a33.25,33.25,0,0,1-19.34-6.45q-9.2-6.43-9.2-14.73,1.6-13.82,2.64-37.05t1-57.54c0-3.53-.16-7.29-.46-11.28s-.77-8.21-1.38-12.66c-.15-1.53-.39-3.22-.69-5.06s-.69-3.84-1.15-6q0-7.82,9.09-11.51t24.28-3.68q7.83,0,11,4.61,2.29,3,2.3,8.28-1.15,17-1.38,25.55-.93,14.73-1.26,22.78c-.24,5.38-.35,8.45-.35,9.21q.23,6.68.46,11.51t.46,9.66c.15,3.23.31,6.68.46,10.36s.3,8.14.46,13.35c.31,6,.53,11.43.69,16.34S1999.85,290.52,2000,294.35Z"/><path class="cls-2" d="M96.61,219.73c-4.86-4.86-10-9.95-12.3-11.35s-5.44,4.87-7.6,6.86-7.51,7.62-11.59,11-2.23,4.37.41,7c1.34,1.34,3.53,2.78,6.12,5.37s2.92,3.67,7.5,8.25,6.57,2.41,9.22-.23,4-4,8.52-8,8.76-8.36,7.78-9.87S101.47,224.6,96.61,219.73Z"/><path class="cls-2" d="M229.06,105c1.52-1,4.14-3.2,9-8.06S248,87,249.42,84.6s-4.87-5.44-6.86-7.6-7.62-7.51-11-11.59-4.37-2.24-7,.41c-1.33,1.33-2.78,3.53-5.36,6.12s-3.68,2.92-8.25,7.49-2.42,6.58.23,9.22,4,4,8,8.53S227.54,105.94,229.06,105Z"/><path class="cls-2" d="M392.77,225c-1.33-1.34-3.53-2.78-6.11-5.37s-2.93-3.67-7.5-8.25-6.58-2.41-9.22.23-4,4-8.53,8-8.75,8.36-7.78,9.87,3.2,4.14,8.07,9,9.95,9.95,12.29,11.35,5.45-4.87,7.61-6.86,7.5-7.62,11.58-11S395.42,227.68,392.77,225Z"/><path class="cls-2" d="M454.67,223.9c-6.09-6.88-31.7-30.43-37-36s-34.91-35.93-38-39.63-6.14-4.26-9.95.29-13.05,10.29-19.47,16.71-14.93,19-20.24,24.47-20,18.54-22,20.55-2.61,1.57-3.82.35-5.6-5.83-7.13-7.52-5.56-5.17-8.86-8.46-3.49-3.5,1.15-8.15,17.75-15.87,26.28-24.06S339.44,136.32,341.8,134s8.77-8.77,10.5-10.83-3.1-5.4-5.83-8-4.09-3.55-7-6.48-4.49-3-6.65-.06-15.38,14.59-20.93,20.13S293.45,149,289.13,153.1s-12.05,12.68-18.08,17.79-10.06-3.36-12.79-6.71-6.74-6.11-9.61-9-2.62-2,1.09-5.95,13.24-12.64,19.43-18.67,8.39-11.26,15.27-18.59S300,99,303.45,95.55s12.69-10.8,9-13.87S305.85,74,299.65,67.53a235.09,235.09,0,0,0-19.44-18.09c-8.64-7.39-9.22-10.57-19.68-21s-19.44-16.83-24.9-23.54-6.57-6.58-14.14,1-21,18.26-33.43,30.7-39,41.74-42.83,45.57,7.84,12.61,11.25,16,8.55,10,16.13,17.61,17.49,14,21.36,17.83,14.06,15.32,16.49,17.74-3,6.41-6,9.56-6.17,5.43-10.09,9.35-5.46,2-8.42-.93-10.95-11-16-17.07-16.52-14.48-22.29-19.56S132.34,115,125.88,109.19s-9.23,1.52-13.67,6-8.38,7.16-3.79,10.91,9.17,10.92,14,15.73,15.28,13.54,21.95,20.21,22.33,23.46,27.18,27.17-3.7,7.68-5.46,10.09-12.28,13.64-14.51,12.38S141.51,200.31,128.77,187s-24-18-32.55-30.67-14-12.69-18.61-6.54S52,175.37,41,184.39-1.93,225.17.09,231.8s19.57,18.37,38.09,36.89c3.74,3.74,16,16.6,20.33,20.92s17.7,18.3,21.31,21.91,4.37,3.88,7.92.32,8.89-9.47,15.31-15.9,15-14.14,24.89-24.07,16.27-17.09,21.46-22.28,17.33,11.54,21.46,15.67-4.94,10.25-11.27,16.58-18.76,17.4-24.83,23.47-19.18,21.22-25.7,27.06,3.16,11.55,8,16.4,6.05,4.79,10.94-.1,9.09-10,15.65-16.57,13.9-10.74,22.88-19.73,14.23-17.38,19.57-22.73,8.67-.46,12.46,3.33l11.64,11.64c2.88,2.88-9.06,12.43-15.48,18.85s-13.42,12.62-20.24,19.45-20.32,21.75-26.14,26.93-.47,9.75,5.26,15.48,19,18.17,24,23.09S195,427.59,201.4,434s20.25,19.33,24.72,23.8,9.37-4.18,12.54-7.35,10.82-10.13,18.25-17.56,15.62-16.4,23.24-24,16.85-15.35,26.31-25.53,2.11-14.73-5.67-22.5-14.48-16.76-23.16-25.44-22.48-19.36-28.17-24.89-.07-8.65,3.87-12.13,8.16-7.38,12.25-11.48,11.1,7.38,17.09,13.37,15.54,14.63,22.21,21.3,17.43,18.35,25.24,26.16,11.6,1.67,14.39-2.44,10.86-6.58,7.22-11.36S338,321.35,332.31,315.62,310,292.08,303.6,284.9s-16.66-14.65-18.14-16.13,4.86-7.36,8.67-10.38,10.45-12.22,12.14-11.25,6.57,7.45,12.26,13.13,12.77,10.65,22.06,19.94,18.67,19.92,27,28.3,16.77-2.14,22.46-7.75c14.45-14.28,23.41-20.81,28.49-26.1,8.28-8.62,26.31-29.72,29.2-33.41S460.75,230.78,454.67,223.9Zm-322.3,8.4c-4.38,4.37-15.37,13.4-20.8,18.83s-7.51,10-13.48,16-12.71,15.66-19.82,8.55S62.69,259.39,56.7,253.39,40,237.33,35.77,233.15c-2.61-2.61-3.69-3.86,2-8.81s17.25-18.45,22.8-24,16-14.92,20-19.26,6.77.14,10.6,4.49,15.87,14.54,20.43,19.77,11.75,12.42,15.76,16.42S136.75,227.92,132.37,232.3Zm73.68-119.83c-5.43-5.43-9.38-8.13-15.35-14.1S175,85.67,182.14,78.56,198.41,63,204.4,57s16.07-16.74,20.25-20.92c2.61-2.62,3.86-3.7,8.81,2s18.45,17.26,24,22.8,14.92,16,19.26,20-.14,6.76-4.5,10.59-14.54,15.88-19.76,20.44S240,123.65,236,127.66s-6.14,9.37-10.52,5S211.48,117.9,206.05,112.47Zm5.54,74.23c4.58-4.57,5.67-4.91,8.25-7.5s4-4.78,5.37-6.12c2.64-2.64,3.65-4.49,7-.4s8.17,7.48,10.16,9.64,9.09,7.2,7.68,9.55-6.49,7.43-11.35,12.29-7.49,7.09-9,8.07-5.84-3.24-9.88-7.78-5.37-5.88-8-8.53S207,191.28,211.59,186.7Zm-7.79,52.59c-4.55,4-5.89,5.38-8.53,8s-4.64,4.81-9.22.23-4.91-5.66-7.5-8.25-4.78-4-6.12-5.36c-2.64-2.65-4.49-3.65-.4-7s9.42-9,11.58-11,5.26-8.27,7.61-6.86,7.43,6.49,12.29,11.36,7.09,7.48,8.06,9S208.34,235.25,203.8,239.29Zm48.27,107.3c5.43,5.43,9.38,8.13,15.35,14.1S283.08,373.4,276,380.5s-16.27,15.58-22.26,21.58S237.65,418.83,233.47,423c-2.61,2.61-3.86,3.69-8.81-2.05s-18.45-17.26-24-22.8-14.92-16-19.26-20,.14-6.76,4.5-10.59,14.54-15.88,19.76-20.43,12.42-11.75,16.43-15.76,6.14-9.37,10.52-5S246.64,341.16,252.07,346.59Zm-3.82-75.49c-4.09,3.37-7.49,8.18-9.65,10.17s-7.2,9.08-9.54,7.68-7.44-6.5-12.3-11.36-7.08-7.48-8.06-9,3.23-5.83,7.77-9.87,5.89-5.38,8.53-8,4.64-4.81,9.22-.23,4.91,5.66,7.5,8.25,4.78,4,6.12,5.36C250.48,266.73,252.33,267.73,248.25,271.1Zm38.62-41c-1.41,2.35-6.5,7.44-11.36,12.3s-7.49,7.08-9,8.06-5.84-3.23-9.88-7.78-5.37-5.88-8-8.53-4.81-4.64-.24-9.21,5.67-4.92,8.25-7.5,4-4.79,5.37-6.12c2.65-2.65,3.65-4.49,7-.41s9,9.43,11,11.59S288.27,227.72,286.87,230.07Zm133.62,3.87c-5.75,4.95-17.26,18.45-22.8,24s-16,14.92-20,19.26-6.76-.14-10.59-4.49-15.88-14.54-20.43-19.77-11.75-12.42-15.76-16.42-9.37-6.15-5-10.53,14.75-14,20.18-19.44,8.13-9.39,14.1-15.36,12.71-15.66,19.81-8.55,14.64,17.2,20.64,23.2,17.68,15.12,21.86,19.3C425.15,227.74,426.23,229,420.49,233.94Z"/><path class="cls-2" d="M229.06,354.11c-1.52,1-4.14,3.2-9,8.06s-9.95,9.95-11.36,12.29,4.87,5.45,6.86,7.61,7.62,7.5,11,11.58,4.37,2.24,7-.4c1.33-1.34,2.78-3.53,5.36-6.12s3.68-2.92,8.25-7.5,2.42-6.58-.23-9.22-4-4-8-8.53S230.57,353.13,229.06,354.11Z"/></svg>