<svg id="Слой_1" data-name="Слой 1" xmlns="http://www.w3.org/2000/svg" viewBox="0 0 808.55 812.98"><defs><style>.cls-1{fill:#dac99a;}</style></defs><path class="cls-1" d="M171.08,389.12c-8.61-8.61-17.62-17.62-21.77-20.11s-9.64,8.63-13.47,12.16-13.29,13.49-20.52,19.45-4,7.74.73,12.43c2.36,2.36,6.25,4.92,10.83,9.5s5.18,6.51,13.28,14.61,11.65,4.27,16.33-.41,7-7.05,15.1-14.2,15.5-14.8,13.77-17.48S179.69,397.73,171.08,389.12Z"/><path class="cls-1" d="M405.64,185.87c2.68-1.74,7.33-5.67,15.94-14.28S439.2,154,441.69,149.81s-8.63-9.63-12.15-13.46-13.5-13.29-19.46-20.52-7.74-4-12.42.72c-2.37,2.37-4.93,6.26-9.51,10.84s-6.5,5.17-14.61,13.28-4.27,11.64.41,16.32,7.05,7,14.2,15.1S403,187.6,405.64,185.87Z"/><path class="cls-1" d="M695.56,398.51c-2.37-2.37-6.26-4.92-10.84-9.5s-5.17-6.51-13.28-14.61-11.64-4.28-16.33.41-7,7-15.09,14.2-15.51,14.8-13.78,17.48,5.67,7.34,14.28,15.95,17.62,17.62,21.78,20.1,9.63-8.63,13.46-12.15,13.29-13.49,20.52-19.45S700.24,403.19,695.56,398.51Z"/><path class="cls-1" d="M805.16,396.5c-10.77-12.19-56.13-53.9-65.59-63.76s-61.82-63.64-67.36-70.18-10.88-7.55-17.62.5-23.11,18.22-34.49,29.6S593.67,326.33,584.27,336s-35.44,32.83-39,36.39-4.63,2.77-6.78.62-9.91-10.33-12.63-13.31-9.84-9.16-15.68-15-6.19-6.19,2-14.42,31.43-28.11,46.54-42.61,42.34-46.26,46.51-50.44,15.54-15.53,18.6-19.17-5.49-9.56-10.32-14.09-7.25-6.3-12.43-11.49-8-5.23-11.79-.09S562.11,218.2,552.29,228s-32.62,35.75-40.28,43.1-21.34,22.45-32,31.51-17.81-5.95-22.65-11.88-11.92-10.83-17-15.92-4.64-3.61,1.94-10.53,23.43-22.38,34.4-33.06,14.85-19.93,27-32.92,27.47-22.93,33.67-29.12,22.47-19.11,15.93-24.55-11.68-13.59-22.66-25.07-19.13-18.93-34.43-32-16.32-18.73-34.84-37.25S426.93,20.5,417.27,8.62s-11.63-11.64-25,1.76S355,42.72,333,64.74,264,138.65,257.18,145.43s13.89,22.35,19.93,28.39,15.13,17.75,28.56,31.18,31,24.73,37.83,31.58,24.9,27.11,29.2,31.41-5.31,11.35-10.54,16.92-10.92,9.62-17.87,16.57-9.67,3.58-14.91-1.65-19.39-19.4-28.31-30.22S271.81,244,261.6,235s-27.25-31.42-38.68-41.6-16.35,2.68-24.2,10.53-14.85,12.68-6.73,19.32,16.25,19.33,24.77,27.86,27.05,24,38.87,35.78,39.53,41.55,48.13,48.13-6.56,13.58-9.67,17.85S272.34,377,268.4,374.78,250.59,354.72,228,331.09s-42.42-31.95-57.65-54.32-24.78-22.47-33-11.58-45.38,45.37-64.85,61.34-76,72.22-72.42,84S34.81,443,67.61,475.81c6.63,6.63,28.36,29.41,36,37.06s31.33,32.41,37.72,38.8,7.74,6.86,14,.57,15.73-16.79,27.11-28.17,26.49-25,44.07-42.62,28.81-30.26,38-39.45,30.69,20.43,38,27.74-8.76,18.15-20,29.36-33.22,30.82-44,41.56-34,37.59-45.52,47.92,5.59,20.46,14.18,29.06,10.73,8.47,19.39-.19,16.09-17.74,27.7-29.35,24.62-19,40.53-34.92,25.19-30.8,34.65-40.26,15.35-.82,22.07,5.89l20.6,20.61c5.1,5.1-16,22-27.4,33.39S321.08,595.16,309,607.25s-36,38.53-46.28,47.69-.83,17.27,9.31,27.41,33.73,32.18,42.43,40.89,30.79,34,42.2,45.38,35.86,34.22,43.78,42.14,16.6-7.41,22.21-13,19.17-18,32.32-31.11,27.65-29,41.14-42.53,29.84-27.18,46.59-45.2,3.74-26.1-10-39.86-25.64-29.67-41-45-39.82-34.29-49.89-44.09-.14-15.3,6.84-21.48,14.46-13.07,21.71-20.31S490,521.19,500.57,531.8s27.52,25.91,39.33,37.72,30.88,32.49,44.71,46.32,20.54,2.95,25.48-4.33,19.23-11.65,12.78-20.11-24.25-22.33-34.38-32.47-39.52-41.7-50.85-54.4-29.5-25.95-32.12-28.57,8.61-13,15.34-18.38,18.51-21.64,21.5-19.93,11.64,13.19,21.71,23.26,22.62,18.86,39.07,35.31S636.2,531.49,651,546.33s29.7-3.78,39.77-13.73c25.59-25.27,41.45-36.85,50.45-46.21,14.66-15.27,46.59-52.62,51.72-59.17S815.92,408.69,805.16,396.5ZM234.41,411.37c-7.75,7.75-27.21,23.73-36.83,33.35S184.27,462.42,173.7,473s-22.5,27.73-35.09,15.15S111,459.35,100.4,448.73s-29.65-28.45-37.05-35.85c-4.63-4.63-6.55-6.84,3.62-15.6s30.56-32.68,40.38-42.49,28.35-26.42,35.37-34.1,12,.24,18.76,8,28.12,25.75,36.19,35,20.8,22,27.9,29.08S242.16,403.61,234.41,411.37ZM364.89,199.18c-9.61-9.62-16.61-14.4-27.18-25s-27.74-22.5-15.16-35.09,28.8-27.59,39.42-38.21,28.45-29.65,35.85-37.06c4.63-4.63,6.85-6.54,15.61,3.63S446.1,98,455.92,107.86s26.41,28.35,34.1,35.37-.25,12-8,18.76-25.75,28.12-35,36.18-22,20.81-29.09,27.9-10.88,16.6-18.63,8.85S374.51,208.79,364.89,199.18Zm9.81,131.45c8.11-8.11,10-8.7,14.61-13.28s7.14-8.47,9.51-10.84c4.68-4.68,6.46-7.95,12.42-.72s14.48,13.25,18,17.08,16.09,12.75,13.6,16.9-11.5,13.17-20.11,21.78-13.26,12.54-15.94,14.28-10.33-5.73-17.49-13.78-9.52-10.41-14.2-15.1S366.6,338.73,374.7,330.63Zm-13.8,93.13c-8,7.15-10.42,9.52-15.1,14.2s-8.22,8.51-16.33.41-8.69-10-13.28-14.61-8.46-7.14-10.83-9.51c-4.68-4.68-7.95-6.46-.72-12.42s16.69-15.93,20.52-19.45,9.3-14.65,13.46-12.16,13.17,11.5,21.78,20.11,12.54,13.26,14.27,15.94S369,416.61,360.9,423.76Zm85.48,190c9.62,9.61,16.61,14.39,27.19,25s27.73,22.5,15.15,35.09S459.92,701.41,449.3,712s-28.44,29.65-35.85,37.05c-4.63,4.63-6.84,6.54-15.6-3.62s-32.67-30.56-42.49-40.38-26.42-28.36-34.1-35.37.24-12,8-18.76,25.75-28.12,35-36.19,22-20.8,29.09-27.9,10.87-16.59,18.63-8.84S436.76,604.15,446.38,613.77Zm-6.77-133.69c-7.23,6-13.25,14.48-17.08,18s-12.74,16.09-16.9,13.6-13.17-11.5-21.78-20.11-12.54-13.26-14.27-15.94,5.72-10.33,13.77-17.49,10.42-9.51,15.1-14.2,8.22-8.51,16.32-.41,8.7,10,13.28,14.61,8.47,7.14,10.84,9.51C443.57,472.34,446.84,474.12,439.61,480.08ZM508,407.42c-2.49,4.16-11.5,13.17-20.11,21.78S474.64,441.74,472,443.48s-10.33-5.72-17.48-13.78-9.52-10.41-14.2-15.09-8.52-8.23-.41-16.33,10-8.7,14.61-13.28,7.14-8.47,9.5-10.84c4.68-4.68,6.47-8,12.43-.72s15.93,16.69,19.45,20.52S510.5,403.27,508,407.42Zm236.62,6.86C734.46,423,714.07,447,704.25,456.77s-28.35,26.42-35.37,34.1-12-.24-18.76-8-28.12-25.75-36.18-35-20.81-22-27.91-29.09-16.59-10.88-8.84-18.63,26.12-24.83,35.74-34.44,14.4-16.62,25-27.19,22.5-27.74,35.09-15.15,25.92,30.46,36.55,41.08,31.31,26.78,38.71,34.18C752.89,403.31,754.8,405.52,744.63,414.28Z"/><path class="cls-1" d="M405.64,627.08c-2.69,1.73-7.34,5.67-15.95,14.27S372.07,659,369.58,663.13s8.63,9.64,12.16,13.46,13.49,13.3,19.45,20.52,7.74,4,12.43-.72c2.36-2.37,4.92-6.25,9.5-10.83s6.51-5.18,14.61-13.28,4.27-11.65-.41-16.33-7.05-7.05-14.2-15.1S408.32,625.34,405.64,627.08Z"/></svg>